<svg width="21" height="25" viewBox="0 0 21 25" fill="none" xmlns="http://www.w3.org/2000/svg">
<path fill-rule="evenodd" clip-rule="evenodd" d="M18.3716 2.44462C13.0674 1.85179 7.71361 1.85179 2.40938 2.44462C2.05049 2.48473 1.87766 2.9056 2.10479 3.18636L6.79415 8.9831C8.47401 11.0596 9.39049 13.6497 9.39049 16.3207V20.173L11.3905 21.6396V16.3207C11.3905 13.6497 12.307 11.0596 13.9868 8.98309L18.6762 3.18636C18.9033 2.9056 18.7305 2.48473 18.3716 2.44462ZM2.18724 0.456994C7.6391 -0.152331 13.1419 -0.152331 18.5937 0.456994C20.523 0.672615 21.452 2.935 20.2311 4.44423L15.5417 10.241C14.1499 11.9615 13.3905 14.1076 13.3905 16.3207V23.6131C13.3905 23.9899 13.1786 24.3347 12.8425 24.5051C12.5064 24.6754 12.103 24.6423 11.7991 24.4195L7.79912 21.4861C7.54225 21.2978 7.39049 20.9983 7.39049 20.6797V16.3207C7.39049 14.1076 6.63112 11.9615 5.23924 10.241L0.549874 4.44424C-0.671045 2.935 0.258 0.672615 2.18724 0.456994Z" fill="black"/>
</svg>
