<svg width="311" height="52" viewBox="0 0 311 52" fill="none" xmlns="http://www.w3.org/2000/svg">
<path d="M5.69178 32.5461C5.32847 32.7075 4.91471 32.7883 4.45049 32.7883C4.00645 32.7883 3.50186 32.4653 2.93671 31.8195C2.39176 31.1736 1.89726 30.3662 1.45322 29.3974C0.484407 27.2176 0 25.0882 0 23.0093C0 21.6974 0.252295 20.6579 0.756885 19.8909C0.756885 19.8909 1.69542 18.8616 3.5725 16.8029C4.46058 15.7937 5.4193 14.9056 6.44866 14.1386C18.357 5.45967 30.4167 0.797252 42.6278 0.151377C44.3434 0.050459 45.6755 0 46.6241 0C47.5728 0 48.3397 0.141285 48.9251 0.423856C49.5306 0.686243 50.1058 1.03946 50.6508 1.48349C51.1957 1.90735 51.7104 2.39176 52.1948 2.93671C52.6792 3.46149 53.1031 3.98626 53.4664 4.51104C54.2333 5.58077 54.6168 6.33765 54.6168 6.78169C54.6168 7.22573 54.526 7.7505 54.3444 8.35601C54.1627 8.94134 53.9508 9.58721 53.7086 10.2936C53.4664 10.9799 53.204 11.6661 52.9214 12.3524L52.2554 14.1083C49.248 21.879 45.6755 29.1754 41.5379 35.9975C40.1654 38.2782 39.0149 40.0342 38.0865 41.2654C37.1782 42.5168 36.4112 43.5159 35.7855 44.2626C35.18 45.0094 34.5241 45.7461 33.8176 46.4728C33.1112 47.1994 32.3543 47.8856 31.547 48.5315C30.7396 49.1975 29.9121 49.7829 29.0644 50.2875C27.2075 51.3774 25.3708 51.9223 23.5543 51.9223C22.3433 51.9223 20.9708 51.2865 19.4368 50.015C17.8221 48.6627 17.0148 47.2902 17.0148 45.8975C17.0148 43.637 19.2249 40.3369 23.6451 35.9975C25.9662 33.7167 28.0754 31.8699 29.9727 30.4571C31.8699 29.024 33.2424 28.0552 34.0901 27.5506C37.2589 21.5561 39.2067 17.8019 39.9333 16.2882L41.6287 12.6854C42.4764 10.8083 42.9003 9.68813 42.9003 9.32483C42.9003 8.41656 42.4158 7.96243 41.447 7.96243C40.4782 7.96243 39.2369 8.19454 37.7232 8.65877C36.2094 9.12299 34.5846 9.75877 32.8488 10.5661C31.113 11.3533 29.3066 12.2817 27.4295 13.3515C25.5726 14.401 23.746 15.5212 21.9497 16.712C20.1735 17.8827 18.468 19.0937 16.8331 20.3451C15.2184 21.5965 13.7854 22.8075 12.534 23.9781C9.76886 26.5414 8.25509 28.5194 7.99271 29.9121C7.73032 31.1635 6.96334 32.0415 5.69178 32.5461Z" fill="#9747FF"/>
<path d="M87.9803 22.4341C87.9803 23.524 88.9088 24.0689 90.7657 24.0689C92.1382 24.0689 93.9345 23.4029 96.1547 22.0708L98.5767 20.7387C99.3235 20.3148 99.9694 20.1029 100.514 20.1029C101.079 20.1029 101.524 20.2744 101.846 20.6176C102.169 20.9607 102.331 21.435 102.331 22.0405C102.331 22.646 102.129 23.3524 101.725 24.1598C101.322 24.9469 100.767 25.7846 100.06 26.6726C99.3538 27.5405 98.5263 28.4084 97.5776 29.2763C96.629 30.124 95.6097 30.891 94.5198 31.5773C92.0978 33.091 89.8473 33.8479 87.7684 33.8479C85.5684 33.8479 83.8124 33.4745 82.5005 32.7277C82.0968 32.4855 81.7032 32.2332 81.3197 31.9708C79.1601 34.4332 76.0316 36.6938 71.9344 38.7525C67.5747 40.9324 63.7701 42.0223 60.5205 42.0223C57.1095 42.0223 54.415 40.6801 52.437 37.9956C50.8425 35.8158 50.0452 33.6057 50.0452 31.3653C50.0452 28.1359 51.7709 25.0579 55.2223 22.1313C57.7655 19.9919 60.2178 18.3671 62.5793 17.257C64.9609 16.1469 67.1105 15.2891 69.0279 14.6836C73.0848 13.412 76.7381 12.7762 79.9876 12.7762C81.4408 12.7762 82.7326 13.0588 83.8629 13.6239C85.0133 14.1689 85.8611 14.7239 86.406 15.2891C87.6978 16.5606 88.3436 18.1854 88.3436 20.1634C88.3436 20.7487 88.2831 21.2029 88.162 21.5258C88.0409 21.8488 87.9803 22.1515 87.9803 22.4341ZM63.215 28.1561L63.1848 28.247V28.2772C63.1848 29.1451 63.3765 29.7103 63.76 29.9727C64.6885 30.5378 65.6674 30.6892 66.6967 30.4268C67.7261 30.1442 68.705 29.8011 69.6334 29.3974C71.9344 28.4084 74.0133 27.157 75.8702 25.6433C75.5472 24.9974 75.3858 24.3313 75.3858 23.6451C75.3858 22.1919 76.0215 20.7387 77.2931 19.2854C75.6784 19.2854 73.4986 20.0423 70.7536 21.5561C67.7261 23.2313 65.4554 24.957 63.9417 26.7332C63.4573 27.3387 63.215 27.813 63.215 28.1561Z" fill="#9747FF"/>
<path d="M134.029 25.8552C134.029 27.8937 134.927 28.913 136.724 28.913C138.52 28.913 141.628 27.1873 146.049 23.7359L148.713 21.5561C150.469 20.1029 152.144 19.3763 153.739 19.3763C154.324 19.3763 154.707 19.5377 154.889 19.8607C155.071 20.1634 155.161 20.557 155.161 21.0414C155.161 21.5056 155.071 22.0001 154.889 22.5249C154.728 23.0295 154.495 23.5644 154.193 24.1295C153.527 25.4011 152.881 26.3901 152.255 27.0965C151.629 27.8029 150.893 28.5396 150.045 29.3066C149.217 30.0534 148.228 30.9011 147.078 31.8497C145.927 32.7782 144.656 33.7369 143.263 34.7259C141.871 35.6947 140.468 36.5828 139.055 37.3901C135.866 39.247 133.242 40.1755 131.183 40.1755C128.721 40.1755 126.793 39.3076 125.401 37.5718C124.089 35.9571 123.352 33.7974 123.191 31.0928C119.558 34.8268 115.713 37.703 111.656 39.7213C109.173 40.9525 107.074 41.5681 105.358 41.5681C103.643 41.5681 102.139 41.3663 100.847 40.9626C99.5556 40.5388 98.4254 39.9131 97.4565 39.0856C95.3574 37.3296 94.3079 34.8874 94.3079 31.7589C94.3079 27.2781 95.9125 22.9589 99.1217 18.801C100.131 17.5093 101.261 16.379 102.513 15.4102C105.217 13.7148 108.083 12.867 111.111 12.867C112.443 12.867 113.391 13.2808 113.957 14.1083C114.179 14.4313 114.29 14.8551 114.29 15.3799C114.29 15.8845 114.138 16.4799 113.836 17.1662C113.553 17.8322 113.2 18.5386 112.776 19.2854C112.352 20.012 111.878 20.7689 111.353 21.5561C110.848 22.3433 110.384 23.1102 109.96 23.857C108.951 25.6332 108.447 26.9148 108.447 27.702C108.447 28.469 108.669 29.0341 109.113 29.3974C109.557 29.7607 110.102 29.9424 110.747 29.9424C112.18 29.9424 113.402 29.5993 114.411 28.913C115.42 28.2066 116.419 27.3992 117.408 26.491L120.254 23.7056L123.009 20.8598C124.967 18.8616 126.45 17.6203 127.459 17.1359C128.489 16.6313 129.236 16.4395 129.7 16.5606C130.164 16.6817 130.638 16.9038 131.123 17.2267C131.607 17.5295 132.082 17.9029 132.546 18.3469C133.636 19.3964 134.241 20.3451 134.362 21.1928C134.403 21.7377 134.352 22.5552 134.211 23.6451C134.09 24.7148 134.029 25.4515 134.029 25.8552Z" fill="#9747FF"/>
<path d="M146.957 31.0928C146.573 31.0928 146.2 31.002 145.837 30.8204C145.453 30.6387 145.1 30.3461 144.777 29.9424C144.071 29.0543 143.717 27.8433 143.717 26.3093C143.717 24.6745 144.696 22.6359 146.654 20.1937C148.551 17.8322 150.761 15.7937 153.284 14.0781C155.989 12.2212 158.31 11.2927 160.248 11.2927C161.963 11.2927 163.124 11.7771 163.729 12.7459L164.153 13.412C164.476 13.9166 164.799 14.1689 165.122 14.1689C165.445 14.1689 165.95 14.1386 166.636 14.0781L170.935 13.7753C171.601 13.7148 172.126 13.6845 172.509 13.6845C172.893 13.6845 173.327 13.8258 173.811 14.1083C174.316 14.3707 174.76 14.7239 175.143 15.168C175.991 16.1772 176.415 17.2873 176.415 18.4983C176.415 19.7497 175.032 21.7176 172.267 24.402L170.269 26.4002C168.836 27.8736 168.119 28.802 168.119 29.1855C168.119 29.569 168.301 29.9121 168.664 30.2149C169.028 30.4974 169.421 30.6387 169.845 30.6387C170.269 30.6387 170.743 30.5277 171.268 30.3057C171.813 30.0635 172.479 29.7204 173.266 29.2763C174.053 28.8121 174.951 28.257 175.961 27.6112C178.726 25.7946 180.573 24.5433 181.501 23.857L184.014 22.0708C185.73 20.8598 186.951 20.2542 187.677 20.2542C188.404 20.2542 188.999 20.4157 189.464 20.7387C189.928 21.0414 190.16 21.5763 190.16 22.3433C190.16 23.1102 189.766 24.1396 188.979 25.4313C188.192 26.7231 187.334 27.8433 186.406 28.7919C185.497 29.7405 184.609 30.6185 183.741 31.4259C182.874 32.2332 181.844 33.1112 180.653 34.0598C179.483 34.9883 178.181 35.9369 176.748 36.9057C175.315 37.8544 173.801 38.7122 172.207 39.4791C168.594 41.2351 165.273 42.1131 162.246 42.1131C157.826 42.1131 155.131 40.9727 154.162 38.692C153.86 38.0057 153.708 37.2388 153.708 36.391C153.708 35.5433 153.87 34.6351 154.193 33.6663C154.516 32.6773 154.939 31.6984 155.464 30.7295C156.514 28.8121 157.755 27.1167 159.188 25.6433C160.399 24.3717 161.005 23.6148 161.005 23.3726C161.005 22.9891 160.783 22.7469 160.339 22.646C159.915 22.5451 159.279 22.4946 158.431 22.4946C158.068 22.4946 157.291 23.0194 156.1 24.0689L153.133 26.7937C149.984 29.6598 147.926 31.0928 146.957 31.0928Z" fill="#9747FF"/>
<path d="M218.316 24.8258C218.316 26.6625 218.851 27.5809 219.921 27.5809C222.544 27.5809 225.955 25.8047 230.154 22.2524L230.971 21.5561C232.606 20.4662 233.928 19.9212 234.937 19.9212C235.967 19.9212 236.612 20.0726 236.875 20.3753C237.157 20.6781 237.299 21.1625 237.299 21.8286C237.299 23.3222 236.542 24.9066 235.028 26.5818C232.767 29.3268 229.669 31.9305 225.733 34.3929C221.172 37.2589 217.085 38.692 213.472 38.692C210.949 38.692 209.365 37.2892 208.719 34.4837C208.537 33.7571 208.406 33.0607 208.325 32.3947C208.123 30.78 207.911 29.8818 207.689 29.7002C207.467 29.5185 207.023 29.5387 206.357 29.7607C205.711 29.9626 204.934 30.3158 204.026 30.8204C203.138 31.3048 202.149 31.9002 201.059 32.6066C195.286 36.4415 191.966 38.6314 191.098 39.1764C189.019 40.4681 187.617 41.114 186.89 41.114C186.163 41.114 185.447 40.9626 184.741 40.6599C184.054 40.3571 183.449 39.9736 182.924 39.5094C181.834 38.48 181.289 37.4305 181.289 36.3608C181.289 30.2451 182.621 24.8965 185.285 20.3148C187.062 17.2267 189.241 15.0872 191.825 13.8964C193.137 13.2707 194.55 12.9579 196.064 12.9579C198.829 12.9579 200.211 13.8661 200.211 15.6827C200.211 16.7928 199.555 18.6093 198.243 21.1322L197.335 22.9185C196.689 24.1497 196.376 24.846 196.397 25.0075C196.518 25.613 196.79 25.9157 197.214 25.9157C197.678 25.9157 198.364 25.5726 199.273 24.8864L204.843 20.7387L207.629 18.801C210.838 16.7019 213.199 15.6524 214.713 15.6524C215.521 15.6524 216.257 15.9753 216.923 16.6212C218.154 17.7918 218.77 18.8111 218.77 19.679C218.77 19.9616 218.74 20.3047 218.679 20.7084C218.639 21.1121 218.588 21.546 218.528 22.0102L218.407 23.4332C218.346 23.9176 218.316 24.3818 218.316 24.8258Z" fill="#9747FF"/>
<path d="M272.872 18.8313C273.841 18.8313 274.325 19.3763 274.325 20.4662C274.325 21.1928 274.073 22.1111 273.569 23.2212C273.084 24.3112 272.378 25.3405 271.449 26.3093C270.521 27.258 269.451 28.247 268.24 29.2763C267.049 30.3057 265.647 31.3855 264.032 32.5158C262.437 33.6461 260.671 34.7663 258.734 35.8764C256.796 36.9865 254.737 37.9855 252.557 38.8736C247.734 40.8516 243.061 41.8406 238.54 41.8406C235.089 41.8406 232.071 40.9424 229.488 39.1461C226.783 37.269 225.431 34.9883 225.431 32.3039C225.431 28.0855 227.701 24.079 232.243 20.2845C236.158 17.0148 240.77 14.4817 246.079 12.6854C249.308 11.5955 252.043 11.0505 254.283 11.0505C256.1 11.0505 257.634 11.4946 258.885 12.3826C260.217 13.3515 260.883 14.6533 260.883 16.2882C260.883 18.8515 258.855 21.6873 254.798 24.7956C254.152 25.3001 253.567 25.724 253.042 26.0671L251.952 26.7937C249.934 28.2066 246.866 29.791 242.748 31.547C244.02 32.213 245.201 32.5461 246.29 32.5461C247.401 32.5461 248.39 32.4149 249.257 32.1525C250.146 31.8901 251.145 31.5167 252.255 31.0323C253.365 30.5479 254.546 29.9727 255.797 29.3066C257.068 28.6204 258.35 27.8736 259.642 27.0662C262.528 25.2699 265.031 23.4332 267.15 21.5561C268.26 20.5267 269.673 19.7093 271.389 19.1038C271.954 18.9221 272.448 18.8313 272.872 18.8313ZM239.478 27.3387L241.144 26.491C241.689 26.2084 242.173 25.946 242.597 25.7038C246.674 23.3625 248.995 21.9194 249.56 21.3744C250.125 20.8295 250.408 20.4561 250.408 20.2542C250.408 20.0322 250.347 19.7799 250.226 19.4974C250.105 19.2148 249.944 18.9625 249.742 18.7405C249.257 18.1753 248.743 17.8928 248.198 17.8928C247.653 17.8928 247.047 17.9937 246.381 18.1955C245.735 18.3974 245.079 18.6799 244.413 19.0432C243.747 19.3864 243.101 19.8102 242.476 20.3148C241.87 20.7992 241.335 21.324 240.871 21.8891C239.801 23.1607 239.267 24.2607 239.267 25.1891C239.267 26.1176 239.337 26.8341 239.478 27.3387Z" fill="#9747FF"/>
<path d="M308.9 18.8313C309.869 18.8313 310.353 19.3763 310.353 20.4662C310.353 21.1928 310.101 22.1111 309.596 23.2212C309.112 24.3112 308.405 25.3405 307.477 26.3093C306.549 27.258 305.479 28.247 304.268 29.2763C303.077 30.3057 301.674 31.3855 300.06 32.5158C298.465 33.6461 296.699 34.7663 294.761 35.8764C292.824 36.9865 290.765 37.9855 288.585 38.8736C283.761 40.8516 279.089 41.8406 274.568 41.8406C271.116 41.8406 268.099 40.9424 265.515 39.1461C262.811 37.269 261.458 34.9883 261.458 32.3039C261.458 28.0855 263.729 24.079 268.27 20.2845C272.186 17.0148 276.798 14.4817 282.106 12.6854C285.336 11.5955 288.07 11.0505 290.311 11.0505C292.127 11.0505 293.661 11.4946 294.913 12.3826C296.245 13.3515 296.911 14.6533 296.911 16.2882C296.911 18.8515 294.883 21.6873 290.826 24.7956C290.18 25.3001 289.594 25.724 289.07 26.0671L287.98 26.7937C285.961 28.2066 282.893 29.791 278.776 31.547C280.048 32.213 281.228 32.5461 282.318 32.5461C283.428 32.5461 284.417 32.4149 285.285 32.1525C286.173 31.8901 287.172 31.5167 288.282 31.0323C289.393 30.5479 290.573 29.9727 291.825 29.3066C293.096 28.6204 294.378 27.8736 295.67 27.0662C298.556 25.2699 301.059 23.4332 303.178 21.5561C304.288 20.5267 305.701 19.7093 307.417 19.1038C307.982 18.9221 308.476 18.8313 308.9 18.8313ZM275.506 27.3387L277.171 26.491C277.716 26.2084 278.201 25.946 278.625 25.7038C282.702 23.3625 285.023 21.9194 285.588 21.3744C286.153 20.8295 286.436 20.4561 286.436 20.2542C286.436 20.0322 286.375 19.7799 286.254 19.4974C286.133 19.2148 285.971 18.9625 285.77 18.7405C285.285 18.1753 284.77 17.8928 284.226 17.8928C283.681 17.8928 283.075 17.9937 282.409 18.1955C281.763 18.3974 281.107 18.6799 280.441 19.0432C279.775 19.3864 279.129 19.8102 278.503 20.3148C277.898 20.7992 277.363 21.324 276.899 21.8891C275.829 23.1607 275.294 24.2607 275.294 25.1891C275.294 26.1176 275.365 26.8341 275.506 27.3387Z" fill="#9747FF"/>
</svg>
