<svg width="255" height="255" viewBox="0 0 255 255" fill="none" xmlns="http://www.w3.org/2000/svg">
<path d="M127.5 79.6877C127.5 79.6877 136.308 30.1221 186.001 21.4521C194.671 19.9327 201.875 27.2533 201.875 36.0508V164.751C201.875 170.616 197.094 175.291 191.25 175.94C136.924 181.975 127.5 233.75 127.5 233.75M127.5 79.6877V233.75M127.5 79.6877C108.046 62.5496 82.8006 53.0933 56.6631 53.1252C54.701 53.1252 52.7531 53.1783 50.8194 53.2846C38.8769 53.9115 32.9056 54.2302 27.0831 60.3821C21.25 66.534 21.25 74.1096 21.25 89.2821V177.045C21.25 190.135 21.25 196.669 23.5981 200.335C24.6775 202.209 26.2312 203.766 28.1031 204.85C31.7687 207.188 40.0669 207.188 56.6631 207.188C82.7223 207.12 107.91 216.565 127.5 233.75" stroke="#9747FF" stroke-width="15.9375" stroke-linecap="round" stroke-linejoin="round"/>
<path d="M127.5 233.761C147.09 216.575 172.278 207.13 198.337 207.198C214.933 207.198 223.231 207.198 226.897 204.861C229.096 203.448 229.989 202.544 231.402 200.345C233.75 196.679 233.75 190.145 233.75 177.055V89.2925C233.75 74.12 233.75 66.5444 227.917 60.3925C222.084 54.2406 213.807 53.7625 201.875 53.125" stroke="#9747FF" stroke-width="15.9375" stroke-linecap="round" stroke-linejoin="round"/>
</svg>
